<mxfile host="app.diagrams.net" agent="Mozilla/5.0 (Windows NT 10.0; Win64; x64) AppleWebKit/537.36 (KHTML, like Gecko) Chrome/128.0.0.0 Safari/537.36 OPR/114.0.0.0" version="26.0.4">
  <diagram name="Strona-1" id="n6o60x9q_0HQJ_DIWfDe">
    <mxGraphModel dx="1161" dy="695" grid="1" gridSize="10" guides="1" tooltips="1" connect="1" arrows="1" fold="1" page="1" pageScale="1" pageWidth="827" pageHeight="1169" math="0" shadow="0">
      <root>
        <mxCell id="0" />
        <mxCell id="1" parent="0" />
        <mxCell id="7eKm3SnM3vBMO6PHNILg-2" value="Rezerwacja Książki" style="ellipse;whiteSpace=wrap;html=1;fillColor=#dae8fc;strokeColor=#6c8ebf;" vertex="1" parent="1">
          <mxGeometry x="330" y="60" width="150" height="110" as="geometry" />
        </mxCell>
        <mxCell id="7eKm3SnM3vBMO6PHNILg-31" style="edgeStyle=orthogonalEdgeStyle;rounded=0;orthogonalLoop=1;jettySize=auto;html=1;entryX=1;entryY=0.5;entryDx=0;entryDy=0;strokeWidth=2;" edge="1" parent="1" source="7eKm3SnM3vBMO6PHNILg-4" target="7eKm3SnM3vBMO6PHNILg-7">
          <mxGeometry relative="1" as="geometry" />
        </mxCell>
        <mxCell id="7eKm3SnM3vBMO6PHNILg-32" style="edgeStyle=orthogonalEdgeStyle;rounded=0;orthogonalLoop=1;jettySize=auto;html=1;entryX=1;entryY=0.5;entryDx=0;entryDy=0;strokeWidth=2;" edge="1" parent="1" source="7eKm3SnM3vBMO6PHNILg-4" target="7eKm3SnM3vBMO6PHNILg-2">
          <mxGeometry relative="1" as="geometry" />
        </mxCell>
        <mxCell id="7eKm3SnM3vBMO6PHNILg-33" style="edgeStyle=orthogonalEdgeStyle;rounded=0;orthogonalLoop=1;jettySize=auto;html=1;entryX=1;entryY=0.5;entryDx=0;entryDy=0;strokeWidth=2;" edge="1" parent="1" source="7eKm3SnM3vBMO6PHNILg-4" target="7eKm3SnM3vBMO6PHNILg-6">
          <mxGeometry relative="1" as="geometry" />
        </mxCell>
        <mxCell id="7eKm3SnM3vBMO6PHNILg-4" value="&lt;div&gt;&lt;br&gt;&lt;/div&gt;&lt;div&gt;&lt;br&gt;&lt;/div&gt;&lt;div&gt;&lt;br&gt;&lt;/div&gt;&lt;div&gt;&lt;br&gt;&lt;/div&gt;&lt;div&gt;&lt;br&gt;&lt;/div&gt;&lt;div&gt;&lt;br&gt;&lt;/div&gt;&lt;div&gt;&lt;br&gt;&lt;/div&gt;&lt;div&gt;Klient&lt;/div&gt;" style="points=[];aspect=fixed;html=1;align=center;shadow=0;dashed=0;fillColor=#0066CC;strokeColor=none;shape=mxgraph.alibaba_cloud.user;" vertex="1" parent="1">
          <mxGeometry x="640" y="208.75" width="72.5" height="72.5" as="geometry" />
        </mxCell>
        <mxCell id="7eKm3SnM3vBMO6PHNILg-6" value="Zwrot Książki" style="ellipse;whiteSpace=wrap;html=1;fillColor=#dae8fc;strokeColor=#6c8ebf;" vertex="1" parent="1">
          <mxGeometry x="330" y="320" width="150" height="110" as="geometry" />
        </mxCell>
        <mxCell id="7eKm3SnM3vBMO6PHNILg-7" value="Wypożyczenie Książki" style="ellipse;whiteSpace=wrap;html=1;fillColor=#dae8fc;strokeColor=#6c8ebf;" vertex="1" parent="1">
          <mxGeometry x="330" y="190" width="150" height="110" as="geometry" />
        </mxCell>
        <mxCell id="7eKm3SnM3vBMO6PHNILg-8" value="Historia Aktywności" style="ellipse;whiteSpace=wrap;html=1;fillColor=#dae8fc;strokeColor=#6c8ebf;" vertex="1" parent="1">
          <mxGeometry x="330" y="710" width="150" height="110" as="geometry" />
        </mxCell>
        <mxCell id="7eKm3SnM3vBMO6PHNILg-9" value="Generowanie Raportów" style="ellipse;whiteSpace=wrap;html=1;fillColor=#dae8fc;strokeColor=#6c8ebf;" vertex="1" parent="1">
          <mxGeometry x="330" y="580" width="150" height="110" as="geometry" />
        </mxCell>
        <mxCell id="7eKm3SnM3vBMO6PHNILg-10" value="Zarządzanie Katalogiem" style="ellipse;whiteSpace=wrap;html=1;fillColor=#dae8fc;strokeColor=#6c8ebf;" vertex="1" parent="1">
          <mxGeometry x="330" y="450" width="150" height="110" as="geometry" />
        </mxCell>
        <mxCell id="7eKm3SnM3vBMO6PHNILg-18" style="edgeStyle=orthogonalEdgeStyle;rounded=0;orthogonalLoop=1;jettySize=auto;html=1;entryX=0;entryY=0.5;entryDx=0;entryDy=0;strokeWidth=2;" edge="1" parent="1" source="7eKm3SnM3vBMO6PHNILg-11" target="7eKm3SnM3vBMO6PHNILg-9">
          <mxGeometry relative="1" as="geometry" />
        </mxCell>
        <mxCell id="7eKm3SnM3vBMO6PHNILg-29" style="edgeStyle=orthogonalEdgeStyle;rounded=0;orthogonalLoop=1;jettySize=auto;html=1;strokeWidth=2;" edge="1" parent="1" source="7eKm3SnM3vBMO6PHNILg-11" target="7eKm3SnM3vBMO6PHNILg-10">
          <mxGeometry relative="1" as="geometry" />
        </mxCell>
        <mxCell id="7eKm3SnM3vBMO6PHNILg-30" style="edgeStyle=orthogonalEdgeStyle;rounded=0;orthogonalLoop=1;jettySize=auto;html=1;entryX=0;entryY=0.5;entryDx=0;entryDy=0;strokeWidth=2;" edge="1" parent="1" source="7eKm3SnM3vBMO6PHNILg-11" target="7eKm3SnM3vBMO6PHNILg-6">
          <mxGeometry relative="1" as="geometry" />
        </mxCell>
        <mxCell id="7eKm3SnM3vBMO6PHNILg-34" style="edgeStyle=orthogonalEdgeStyle;rounded=0;orthogonalLoop=1;jettySize=auto;html=1;entryX=0;entryY=0.5;entryDx=0;entryDy=0;strokeWidth=2;" edge="1" parent="1" source="7eKm3SnM3vBMO6PHNILg-11" target="7eKm3SnM3vBMO6PHNILg-7">
          <mxGeometry relative="1" as="geometry" />
        </mxCell>
        <mxCell id="7eKm3SnM3vBMO6PHNILg-11" value="&lt;div&gt;&lt;br&gt;&lt;/div&gt;&lt;div&gt;&lt;br&gt;&lt;/div&gt;&lt;div&gt;&lt;br&gt;&lt;/div&gt;&lt;div&gt;&lt;br&gt;&lt;/div&gt;&lt;div&gt;&lt;br&gt;&lt;/div&gt;&lt;div&gt;&lt;br&gt;&lt;/div&gt;&lt;div&gt;&lt;br&gt;&lt;/div&gt;&lt;div&gt;Bibliotekarz&lt;/div&gt;" style="points=[];aspect=fixed;html=1;align=center;shadow=0;dashed=0;fillColor=#0066CC;strokeColor=none;shape=mxgraph.alibaba_cloud.user;" vertex="1" parent="1">
          <mxGeometry x="80" y="400" width="72.5" height="72.5" as="geometry" />
        </mxCell>
        <mxCell id="7eKm3SnM3vBMO6PHNILg-12" value="" style="points=[];aspect=fixed;html=1;align=center;shadow=0;dashed=0;fillColor=#0066CC;strokeColor=none;shape=mxgraph.alibaba_cloud.user;" vertex="1" parent="1">
          <mxGeometry x="640" y="728.75" width="72.5" height="72.5" as="geometry" />
        </mxCell>
        <mxCell id="7eKm3SnM3vBMO6PHNILg-17" style="edgeStyle=orthogonalEdgeStyle;rounded=0;orthogonalLoop=1;jettySize=auto;html=1;entryX=1;entryY=0.5;entryDx=0;entryDy=0;strokeWidth=2;" edge="1" parent="1" source="7eKm3SnM3vBMO6PHNILg-16" target="7eKm3SnM3vBMO6PHNILg-8">
          <mxGeometry relative="1" as="geometry" />
        </mxCell>
        <mxCell id="7eKm3SnM3vBMO6PHNILg-16" value="&lt;div&gt;&lt;br&gt;&lt;/div&gt;&lt;div&gt;&lt;br&gt;&lt;/div&gt;&lt;div&gt;&lt;br&gt;&lt;/div&gt;&lt;div&gt;&lt;br&gt;&lt;/div&gt;&lt;div&gt;&lt;br&gt;&lt;/div&gt;&lt;div&gt;&lt;br&gt;&lt;/div&gt;&lt;div&gt;&lt;br&gt;&lt;/div&gt;&lt;div&gt;System Archiwizacji&lt;/div&gt;" style="points=[];aspect=fixed;html=1;align=center;shadow=0;dashed=0;fillColor=#0066CC;strokeColor=none;shape=mxgraph.alibaba_cloud.user;" vertex="1" parent="1">
          <mxGeometry x="640" y="728.75" width="72.5" height="72.5" as="geometry" />
        </mxCell>
      </root>
    </mxGraphModel>
  </diagram>
</mxfile>
